<svg width="1280" height="515" viewBox="0 0 1280 515" fill="none" xmlns="http://www.w3.org/2000/svg">
<path d="M0 0H1280V515H0V0Z" fill="#5A5984"/>
<mask id="mask0_108_6" style="mask-type:luminance" maskUnits="userSpaceOnUse" x="0" y="0" width="1280" height="515">
<path d="M0 0H1280V515H0V0Z" fill="white"/>
</mask>
<g mask="url(#mask0_108_6)">
<path opacity="0.101" fill-rule="evenodd" clip-rule="evenodd" d="M2322 279.215L1256.19 308.119L2307.32 125.766L2288.26 27.092L1243.55 267.226L2243.4 -124.4L2205.73 -217.318L1231.89 226.02L2134.68 -353.351L2080.11 -437.058L1204.87 193.185L1981.92 -559.481L1912.28 -630.597L1178.65 159.689L1795.69 -728.506L1713.9 -784.509L1141.41 139.883L1577.32 -859.227L1486.35 -897.716L1104.63 119.186L1341.95 -942.59L1245.41 -962.361L1062.81 115.465L1091.23 -978H992.768L1021.07 110.687L842.55 -963.011L745.951 -943.544L981.029 123.615L597.652 -897.716L506.685 -859.227L940.704 135.549L373.515 -786.655L291.566 -730.904L908.553 163.127L171.713 -630.604L102.088 -559.484L875.739 189.899L6.25101 -440.377L-48.584 -356.841L856.35 227.947L-121.728 -217.321L-159.406 -124.4L836.111 265.515L-203.336 23.099L-222.696 121.718L832.511 308.254L-238 279.215V379.78L827.826 350.876L-223.328 533.237L-204.268 631.9L840.463 391.772L-159.406 783.395L-121.728 876.316L852.122 432.977L-50.678 1012.35L3.89301 1096.06L879.133 465.818L102.088 1218.48L171.708 1289.6L905.349 499.318L288.309 1387.5L370.092 1443.51L942.607 519.092L506.675 1518.23L597.644 1556.72L979.369 539.806L742.047 1601.59L838.586 1621.36L1021.19 543.54L992.768 1637H1091.23L1062.93 548.29L1241.45 1622.01L1338.05 1602.54L1102.97 535.385L1486.35 1556.72L1577.32 1518.23L1143.31 523.468L1710.49 1445.65L1792.45 1389.9L1175.47 495.89L1912.28 1289.6L1981.92 1218.48L1208.26 469.099L2077.76 1099.37L2132.58 1015.84L1227.62 431.033L2205.73 876.316L2243.4 783.395L1247.9 393.472L2287.34 635.896L2306.69 537.272L1251.58 350.754L2322 379.78V279.215Z" fill="white"/>
<path fill-rule="evenodd" clip-rule="evenodd" d="M0 552H1411V310H0V552Z" fill="#5A5984"/>
</g>
</svg>

